<svg width="30" height="30" viewBox="0 0 30 30" fill="none" xmlns="http://www.w3.org/2000/svg">
<path d="M7.5 16.925C7.49929 16.3334 7.70234 15.7595 8.075 15.3L13.3375 8.92499C13.5365 8.675 13.7894 8.47311 14.0772 8.33435C14.365 8.19558 14.6805 8.12352 15 8.12352C15.3195 8.12352 15.635 8.19558 15.9228 8.33435C16.2106 8.47311 16.4635 8.675 16.6625 8.92499L21.925 15.3C22.2325 15.6838 22.426 16.1462 22.4835 16.6347C22.5409 17.1231 22.46 17.6178 22.25 18.0625C22.0796 18.449 21.8017 18.7782 21.4492 19.011C21.0968 19.2437 20.6848 19.3701 20.2625 19.375H9.7375C9.31518 19.3701 8.9032 19.2437 8.55077 19.011C8.19834 18.7782 7.92035 18.449 7.75 18.0625C7.5875 17.7052 7.50231 17.3175 7.5 16.925V16.925Z" fill="url(#paint0_linear_20_10)"/>
<defs>
<linearGradient id="paint0_linear_20_10" x1="22.5015" y1="13.7493" x2="7.5" y2="13.7493" gradientUnits="userSpaceOnUse">
<stop offset="0.260417" stop-color="#8974FF"/>
<stop offset="1" stop-color="#05F7FF"/>
</linearGradient>
</defs>
</svg>
